<?xml version="1.0" standalone="no"?><!DOCTYPE svg PUBLIC "-//W3C//DTD SVG 1.1//EN" "http://www.w3.org/Graphics/SVG/1.1/DTD/svg11.dtd"><svg t="1782353748273" class="icon" viewBox="0 0 1024 1024" version="1.1" xmlns="http://www.w3.org/2000/svg" p-id="18930" xmlns:xlink="http://www.w3.org/1999/xlink" width="200" height="200"><path d="M563.62764 550.955153a53.905624 53.905624 0 0 0 12.581912-19.023867c0.980993-2.429983 0.980993-5.117964 1.663988-7.676947 0.937993-4.094971 2.217985-7.890945 2.217985-12.028916 0-4.136971-1.279991-7.889945-2.217985-11.899916-0.682995-2.559982-0.682995-5.246963-1.705988-7.677947a54.511619 54.511619 0 0 0-12.539912-19.193866L93.158925 16.463885a56.046609 56.046609 0 0 0-77.586459-1.109992 52.293635 52.293635 0 0 0 1.108993 75.369474l433.742971 421.417057-433.828971 421.417058a52.293635 52.293635 0 0 0-1.065992 75.368473c21.752848 20.473857 56.430606 20.04686 77.544458-1.065992l470.553715-456.90481z" p-id="18931" fill="#2c2c2c"></path><path d="M460.235361 90.723367l433.785972 421.417057-433.786972 421.502057c-21.752848 20.473857-22.221845 54.169622-1.150992 75.283474 10.407927 9.809932 24.439829 15.269893 39.027728 15.056895 14.502899-0.213999 28.407802-6.013958 38.516731-16.208887l470.553714-457.074808c5.501962-5.416962 9.766932-11.857917 12.539913-18.979868 1.150992-2.346984 1.150992-4.990965 1.705988-7.678946 0.980993-3.965972 2.259984-7.762946 2.259984-11.899917 0-4.136971-1.278991-7.847945-2.216984-11.857917-0.682995-2.558982-0.682995-5.245963-1.706988-7.676947a53.871624 53.871624 0 0 0-12.453913-19.194866L536.797827 16.379886a56.131608 56.131608 0 0 0-77.586458-0.980994 52.421634 52.421634 0 0 0 1.023992 75.368474z" p-id="18932" fill="#2c2c2c"></path></svg>