<?xml version="1.0" standalone="no"?><!DOCTYPE svg PUBLIC "-//W3C//DTD SVG 1.1//EN" "http://www.w3.org/Graphics/SVG/1.1/DTD/svg11.dtd"><svg t="1782353711035" class="icon" viewBox="0 0 1024 1024" version="1.1" xmlns="http://www.w3.org/2000/svg" p-id="16945" xmlns:xlink="http://www.w3.org/1999/xlink" width="200" height="200"><path d="M512 453.12L90.624 31.744C70.144 10.24 36.352 9.728 15.36 30.208c-20.48 20.992-19.968 54.784 1.024 75.264L473.088 563.2c5.632 5.12 11.776 9.728 18.944 12.288 2.56 1.024 5.12 1.024 7.168 1.536 4.096 1.024 8.192 2.048 12.288 2.048 4.096 0 8.192-1.024 12.288-2.048 2.56-0.512 5.12-0.512 7.168-1.536 7.168-2.56 13.824-6.656 18.944-12.288l457.216-457.216c20.992-20.48 21.504-54.272 1.024-75.264-20.992-20.48-54.784-19.968-75.264 1.024L512 453.12z" fill="#2c2c2c" p-id="16946"></path><path d="M512 882.688L90.624 461.312c-20.48-20.992-54.272-21.504-75.264-1.024-20.48 20.992-19.968 54.784 1.024 75.264l457.216 457.216c5.632 5.12 11.776 9.728 18.944 12.288 2.56 1.024 5.12 1.024 7.68 1.536 4.096 1.024 8.192 2.048 12.288 2.048 4.096 0 8.192-1.536 12.288-2.048 2.56-0.512 5.12-0.512 7.68-1.536 7.168-2.56 13.824-6.656 18.944-12.288l457.216-457.216c20.992-20.48 21.504-54.272 1.536-75.264-20.992-20.48-54.784-19.968-75.264 1.024L512 882.688z" fill="#2c2c2c" p-id="16947"></path></svg>