<?xml version="1.0" standalone="no"?><!DOCTYPE svg PUBLIC "-//W3C//DTD SVG 1.1//EN" "http://www.w3.org/Graphics/SVG/1.1/DTD/svg11.dtd"><svg t="1782358361556" class="icon" viewBox="0 0 1024 1024" version="1.1" xmlns="http://www.w3.org/2000/svg" p-id="3016" xmlns:xlink="http://www.w3.org/1999/xlink" width="200" height="200"><path d="M512 18.272C784.672 18.272 1005.728 239.36 1005.728 512S784.64 1005.728 512 1005.728 18.272 784.64 18.272 512 239.36 18.272 512 18.272z m328.928 295.424l-543.04 517.12A382.208 382.208 0 0 0 512 896c212.064 0 384-171.936 384-384 0-72.544-20.128-140.448-55.072-198.304zM512 128C299.936 128 128 299.936 128 512c0 81.76 25.568 157.536 69.12 219.808L746.88 208.224A382.368 382.368 0 0 0 512 128z" fill="#2c2c2c" p-id="3017"></path></svg>